<svg width="115" height="115" viewBox="0 0 115 115" fill="none" xmlns="http://www.w3.org/2000/svg">
<g clip-path="url(#clip0_2_124)">
<mask id="mask0_2_124" style="mask-type:luminance" maskUnits="userSpaceOnUse" x="0" y="0" width="115" height="115">
<path d="M33.1307 0L114.656 33.1307L81.5252 114.656L9.29832e-06 81.5252L33.1307 0Z" fill="white"/>
</mask>
<g mask="url(#mask0_2_124)">
<path d="M39.9884 16.2112C60.7523 7.49431 76.3281 15.541 84.2138 34.1837C84.7755 35.5187 85.4164 36.8168 85.9822 38.1534C92.6326 53.9455 89.957 68.4008 76.4466 77.7809C76.9919 78.6888 77.5508 79.6568 78.1395 80.7034C82.8734 89.0746 90.9939 103.201 78.9042 108.302C66.9485 113.349 62.1848 97.682 59.542 88.5363C59.2242 87.4367 58.9165 86.3356 58.6189 85.2331C42.5656 88.2604 30.4262 80.1023 23.7933 64.3838C23.2287 63.0501 22.5879 61.7519 22.0241 60.4162C14.1608 41.7825 19.2245 24.928 39.9884 16.2112Z" fill="#00034A" stroke="#00034A" stroke-width="0.5" stroke-miterlimit="10" stroke-linecap="round" stroke-linejoin="round"/>
<path d="M84.2118 34.1829C76.3281 15.541 60.7523 7.49431 39.9884 16.2112C19.2253 24.926 14.1608 41.7825 22.0241 60.4162C28.7723 76.4 41.2103 84.5655 57.6696 81.1C58.0731 83.368 58.7295 85.6913 59.5391 88.5375C65.4832 109.089 72.498 106.29 77.1358 104.333C81.7736 102.375 88.6519 99.2928 78.1395 80.7034C76.7056 78.1545 75.4498 76.0673 74.1328 74.1833C88.1178 64.8156 90.9517 50.1872 84.2146 34.1817L84.2118 34.1829Z" fill="#66C0F4" stroke="#00034A" stroke-width="0.5" stroke-miterlimit="10" stroke-linecap="round" stroke-linejoin="round"/>
<path d="M45.1589 66.9135C50.3595 69.027 56.1867 68.9879 61.3585 66.805C66.5303 64.622 70.6231 60.474 72.7365 55.2734C74.85 50.0728 74.811 44.2457 72.628 39.0739C70.4451 33.9021 66.297 29.8093 61.0965 27.6958C55.8959 25.5824 50.0687 25.6214 44.8969 27.8043C39.7251 29.9873 35.6323 34.1353 33.5188 39.3359C31.4054 44.5365 31.4444 50.3636 33.6274 55.5354C35.8103 60.7073 39.9583 64.8001 45.1589 66.9135Z" fill="white" stroke="#00034A" stroke-width="0.5" stroke-miterlimit="10" stroke-linecap="round" stroke-linejoin="round"/>
<path d="M53.4285 33.4517C55.1486 32.8626 57.019 32.8833 58.7257 33.5103C60.4324 34.1372 61.8714 35.3323 62.801 36.8949" fill="white"/>
<path d="M53.4285 33.4517C55.1486 32.8626 57.019 32.8833 58.7257 33.5103C60.4324 34.1372 61.8714 35.3323 62.801 36.8949" stroke="#00034A" stroke-width="0.5" stroke-miterlimit="10" stroke-linecap="round" stroke-linejoin="round"/>
</g>
</g>
<defs>
<clipPath id="clip0_2_124">
<rect width="88" height="88" fill="white" transform="translate(33.1307) rotate(22.1161)"/>
</clipPath>
</defs>
</svg>
