<svg width="53" height="53" viewBox="0 0 53 53" fill="none" xmlns="http://www.w3.org/2000/svg">
<path d="M1.08981 34.2281C2.752 39.662 6.11482 44.4188 10.6833 47.7982C15.2517 51.1775 20.7844 53.0009 26.4669 53C41.1214 53 53 41.1346 53 26.5C53 11.8654 41.1214 1.98679e-06 26.4702 1.98679e-06C19.7434 -0.00260026 13.267 2.55115 8.35232 7.14416C3.43766 11.7372 0.452037 18.0262 0 24.7378L0.0099375 24.7576L14.2669 30.6174C15.553 29.7666 17.0758 29.3456 18.6162 29.415L25.1087 19.9943L25.1054 19.8618C25.1081 17.1898 26.1704 14.6279 28.0595 12.7382C29.9486 10.8485 32.5101 9.78532 35.1821 9.78182C37.854 9.78532 40.4155 10.8485 42.3046 12.7382C44.1937 14.6279 45.2561 17.1898 45.2587 19.8618C45.2577 21.2044 44.9888 22.5333 44.4677 23.7708C43.9467 25.0082 43.184 26.1293 42.2244 27.0683C41.2647 28.0073 40.1273 28.7454 38.8788 29.2393C37.6303 29.7333 36.2959 29.9732 34.9535 29.945L25.6653 36.57C25.6968 37.7972 25.421 39.0128 24.863 40.1062C24.305 41.1996 23.4825 42.1362 22.4703 42.8307C21.4581 43.5253 20.2883 43.9558 19.0673 44.083C17.8464 44.2103 16.613 44.0303 15.4793 43.5594C14.3917 43.1053 13.4292 42.3964 12.6728 41.4925C11.9165 40.5885 11.3885 39.516 11.1333 38.3654L1.09312 34.2281H1.08981Z" fill="white"/>
<path d="M16.1252 42.0125C17.5053 42.5393 19.0364 42.5078 20.3936 41.9246C21.7509 41.3415 22.8276 40.2527 23.3955 38.889C23.9634 37.5252 23.9778 35.994 23.4355 34.6199C22.8933 33.2457 21.8372 32.1369 20.4911 31.5284C19.1568 30.9698 17.6587 30.9461 16.3074 31.4622L19.6961 32.8667C20.2029 33.0776 20.6632 33.3864 21.0506 33.7752C21.4381 34.1641 21.7452 34.6254 21.9543 35.133C22.1635 35.6405 22.2706 36.1842 22.2697 36.7332C22.2687 37.2821 22.1596 37.8255 21.9486 38.3323C21.7376 38.8391 21.4289 39.2993 21.0401 39.6868C20.6512 40.0742 20.1898 40.3813 19.6823 40.5905C19.1748 40.7997 18.631 40.9068 18.0821 40.9058C17.5331 40.9048 16.9898 40.7958 16.483 40.5848L13.2036 39.2267C13.8004 40.4832 14.8411 41.4776 16.1252 42.0125ZM28.4676 19.8618C28.4685 21.6429 29.176 23.3509 30.4348 24.611C31.6936 25.871 33.4009 26.5802 35.1821 26.5828C36.9632 26.5802 38.6705 25.871 39.9293 24.611C41.1881 23.3509 41.8956 21.6429 41.8965 19.8618C41.8939 18.0818 41.1856 16.3755 39.927 15.1169C38.6683 13.8582 36.962 13.15 35.1821 13.1473C33.4021 13.15 31.6958 13.8582 30.4371 15.1169C29.1785 16.3755 28.4702 18.0818 28.4676 19.8618ZM35.192 14.8036C35.8549 14.804 36.5113 14.935 37.1236 15.1891C37.7359 15.4432 38.2922 15.8154 38.7607 16.2845C39.2291 16.7536 39.6006 17.3104 39.8539 17.923C40.1072 18.5357 40.2374 19.1922 40.2369 19.8552C40.2365 20.5181 40.1055 21.1745 39.8514 21.7868C39.5973 22.3991 39.2251 22.9554 38.756 23.4238C38.2869 23.8923 37.7301 24.2638 37.1175 24.5171C36.5049 24.7704 35.8483 24.9005 35.1854 24.9001C33.8465 24.8992 32.5628 24.3665 31.6167 23.4191C30.6706 22.4718 30.1395 21.1874 30.1404 19.8485C30.1413 18.5096 30.674 17.226 31.6214 16.2798C32.5687 15.3337 33.8531 14.8027 35.192 14.8036Z" fill="white"/>
</svg>
