<svg width="262" height="301" viewBox="0 0 262 301" fill="none" xmlns="http://www.w3.org/2000/svg">
<path d="M157.437 28.625C171.356 28.625 184.704 34.154 194.546 43.9958C204.388 53.8375 209.917 67.1858 209.917 81.1042C209.917 95.0225 204.388 108.371 194.546 118.213C184.704 128.054 171.356 133.583 157.437 133.583L155.386 133.526L114.481 158.067C114.34 165.214 111.909 172.128 107.546 177.79C103.182 183.452 97.1168 187.564 90.2414 189.521C83.366 191.479 76.0439 191.177 69.3526 188.662C62.6613 186.146 56.9541 181.549 53.0707 175.548L24.3503 161.206C22.766 160.413 21.434 159.193 20.5037 157.685C19.5735 156.176 19.0816 154.439 19.0833 152.667V124.042C19.0826 122.415 19.4977 120.815 20.2892 119.394C21.0807 117.973 22.2224 116.778 23.6058 115.922C24.9892 115.067 26.5683 114.579 28.1933 114.505C29.8183 114.432 31.4351 114.775 32.8901 115.502L61.9922 130.053C67.4175 126.272 73.8434 124.186 80.4553 124.061L105.006 83.1461L104.958 81.1042C104.958 67.1858 110.487 53.8375 120.329 43.9958C130.171 34.154 143.519 28.625 157.437 28.625ZM38.1667 139.48V146.77L64.12 159.747L65.4081 160.529C66.3368 161.197 67.1224 162.005 67.7649 162.953L68.347 163.935C69.7034 166.6 71.8605 168.773 74.5153 170.149C77.1701 171.526 80.1892 172.036 83.1487 171.608C86.1082 171.18 88.8595 169.837 91.0161 167.765C93.1728 165.694 94.6266 162.999 95.1733 160.059C95.72 157.12 95.3322 154.082 94.0644 151.374C92.7965 148.666 90.7123 146.423 88.1044 144.96C85.4965 143.497 82.4958 142.888 79.5238 143.217C76.5518 143.547 73.7577 144.8 71.5339 146.799L70.4843 147.848C69.0853 149.393 67.2187 150.438 65.17 150.822C63.1213 151.206 61.0031 150.909 59.1392 149.976L38.1667 139.48ZM112.353 107.974L99.4337 129.519C103.25 132.028 106.504 135.291 109.014 139.098L130.559 126.179C123.073 121.716 116.816 115.46 112.353 107.974ZM157.437 47.7083C148.58 47.7083 140.086 51.2268 133.823 57.4897C127.56 63.7527 124.042 72.247 124.042 81.1042C124.042 89.9613 127.56 98.4557 133.823 104.719C140.086 110.982 148.58 114.5 157.437 114.5C166.295 114.5 174.789 110.982 181.052 104.719C187.315 98.4557 190.833 89.9613 190.833 81.1042C190.833 72.247 187.315 63.7527 181.052 57.4897C174.789 51.2268 166.295 47.7083 157.437 47.7083ZM157.437 62.0208C162.499 62.0208 167.353 64.0314 170.931 67.6102C174.51 71.189 176.521 76.043 176.521 81.1042C176.521 86.1654 174.51 91.0193 170.931 94.5981C167.353 98.1769 162.499 100.188 157.437 100.188C152.376 100.188 147.522 98.1769 143.944 94.5981C140.365 91.0193 138.354 86.1654 138.354 81.1042C138.354 76.043 140.365 71.189 143.944 67.6102C147.522 64.0314 152.376 62.0208 157.437 62.0208Z" fill="white"/>
<g clip-path="url(#clip0_1_51)">
<mask id="mask0_1_51" style="mask-type:luminance" maskUnits="userSpaceOnUse" x="147" y="88" width="115" height="115">
<path d="M180.131 88L261.656 121.131L228.525 202.656L147 169.525L180.131 88Z" fill="white"/>
</mask>
<g mask="url(#mask0_1_51)">
<path d="M186.988 104.211C207.752 95.4943 223.328 103.541 231.214 122.184C231.776 123.519 232.416 124.817 232.982 126.153C239.633 141.946 236.957 156.401 223.447 165.781C223.992 166.689 224.551 167.657 225.139 168.703C229.873 177.075 237.994 191.201 225.904 196.302C213.948 201.349 209.185 185.682 206.542 176.536C206.224 175.437 205.916 174.336 205.619 173.233C189.566 176.26 177.426 168.102 170.793 152.384C170.229 151.05 169.588 149.752 169.024 148.416C161.161 129.783 166.224 112.928 186.988 104.211Z" fill="#00034A" stroke="#00034A" stroke-width="0.5" stroke-miterlimit="10" stroke-linecap="round" stroke-linejoin="round"/>
<path d="M231.212 122.183C223.328 103.541 207.752 95.4943 186.988 104.211C166.225 112.926 161.161 129.783 169.024 148.416C175.772 164.4 188.21 172.566 204.67 169.1C205.073 171.368 205.729 173.691 206.539 176.538C212.483 197.089 219.498 194.29 224.136 192.333C228.774 190.375 235.652 187.293 225.139 168.703C223.706 166.155 222.45 164.067 221.133 162.183C235.118 152.816 237.952 138.187 231.215 122.182L231.212 122.183Z" fill="#66C0F4" stroke="#00034A" stroke-width="0.5" stroke-miterlimit="10" stroke-linecap="round" stroke-linejoin="round"/>
<path d="M192.159 154.914C197.36 157.027 203.187 156.988 208.358 154.805C213.53 152.622 217.623 148.474 219.737 143.273C221.85 138.073 221.811 132.246 219.628 127.074C217.445 121.902 213.297 117.809 208.096 115.696C202.896 113.582 197.069 113.621 191.897 115.804C186.725 117.987 182.632 122.135 180.519 127.336C178.405 132.537 178.444 138.364 180.627 143.536C182.81 148.707 186.958 152.8 192.159 154.914Z" fill="white" stroke="#00034A" stroke-width="0.5" stroke-miterlimit="10" stroke-linecap="round" stroke-linejoin="round"/>
<path d="M200.428 121.452C202.149 120.863 204.019 120.883 205.726 121.51C207.432 122.137 208.871 123.332 209.801 124.895" fill="white"/>
<path d="M200.428 121.452C202.149 120.863 204.019 120.883 205.726 121.51C207.432 122.137 208.871 123.332 209.801 124.895" stroke="#00034A" stroke-width="0.5" stroke-miterlimit="10" stroke-linecap="round" stroke-linejoin="round"/>
</g>
</g>
<path d="M21.3438 257.219V254.562C23.6875 255.396 26.2188 255.812 28.9375 255.812C32.7812 255.812 34.7031 254.406 34.7031 251.594C34.7031 249.198 33.2865 248 30.4531 248H27.5781C22.901 248 20.5625 245.969 20.5625 241.906C20.5625 237.635 23.5573 235.5 29.5469 235.5C32.151 235.5 34.5729 235.812 36.8125 236.438V239.094C34.5729 238.26 32.151 237.844 29.5469 237.844C25.4844 237.844 23.4531 239.198 23.4531 241.906C23.4531 244.302 24.8281 245.5 27.5781 245.5H30.4531C35.2135 245.5 37.5938 247.531 37.5938 251.594C37.5938 255.969 34.7083 258.156 28.9375 258.156C26.2188 258.156 23.6875 257.844 21.3438 257.219ZM41.5 238.938H43.3125L43.9375 241.594H48.375V243.938H44.3906V253.359C44.3906 254.891 45.0521 255.656 46.375 255.656H48.375V258H45.625C42.875 258 41.5 256.526 41.5 253.578V238.938ZM58.8281 241.594C63.4948 241.594 65.8281 243.901 65.8281 248.516C65.8281 249.172 65.7812 249.875 65.6875 250.625H54.1719C54.1719 253.979 56.1302 255.656 60.0469 255.656C61.9115 255.656 63.5677 255.448 65.0156 255.031V257.375C63.5677 257.792 61.8073 258 59.7344 258C54.099 258 51.2812 255.203 51.2812 249.609C51.2812 244.266 53.7969 241.594 58.8281 241.594ZM54.1719 248.219H63.0469C62.9844 245.344 61.5781 243.906 58.8281 243.906C55.9115 243.906 54.3594 245.344 54.1719 248.219ZM68.9375 253.047C68.9375 249.682 71.1562 248 75.5938 248C77.0208 248 78.4479 248.104 79.875 248.312V246.766C79.875 244.88 78.401 243.938 75.4531 243.938C73.7656 243.938 72.0365 244.198 70.2656 244.719V242.375C72.0365 241.854 73.7656 241.594 75.4531 241.594C80.3281 241.594 82.7656 243.292 82.7656 246.688V258H81.1406L80.1406 256.375C78.5052 257.458 76.724 258 74.7969 258C70.8906 258 68.9375 256.349 68.9375 253.047ZM75.5938 250.344C73.0833 250.344 71.8281 251.229 71.8281 253C71.8281 254.771 72.8177 255.656 74.7969 255.656C76.7969 255.656 78.4896 255.125 79.875 254.062V250.656C78.4479 250.448 77.0208 250.344 75.5938 250.344ZM87.4688 258V241.594H89.4219L89.9062 243.656C91.4792 242.281 93.1927 241.594 95.0469 241.594C97.4219 241.594 99.0417 242.344 99.9062 243.844C101.688 242.344 103.495 241.594 105.328 241.594C109.099 241.594 110.984 243.672 110.984 247.828V258H108.094V247.672C108.094 245.224 107.062 244 105 244C103.458 244 102.016 244.708 100.672 246.125V258H97.7812V247.719C97.7812 245.24 96.7604 244 94.7188 244C93.0938 244 91.6406 244.708 90.3594 246.125V258H87.4688Z" fill="white"/>
<path d="M123.5 257.219V254.562C125.844 255.396 128.375 255.812 131.094 255.812C134.938 255.812 136.859 254.406 136.859 251.594C136.859 249.198 135.443 248 132.609 248H129.734C125.057 248 122.719 245.969 122.719 241.906C122.719 237.635 125.714 235.5 131.703 235.5C134.307 235.5 136.729 235.812 138.969 236.438V239.094C136.729 238.26 134.307 237.844 131.703 237.844C127.641 237.844 125.609 239.198 125.609 241.906C125.609 244.302 126.984 245.5 129.734 245.5H132.609C137.37 245.5 139.75 247.531 139.75 251.594C139.75 255.969 136.865 258.156 131.094 258.156C128.375 258.156 125.844 257.844 123.5 257.219ZM150.422 241.594C155.089 241.594 157.422 243.901 157.422 248.516C157.422 249.172 157.375 249.875 157.281 250.625H145.766C145.766 253.979 147.724 255.656 151.641 255.656C153.505 255.656 155.161 255.448 156.609 255.031V257.375C155.161 257.792 153.401 258 151.328 258C145.693 258 142.875 255.203 142.875 249.609C142.875 244.266 145.391 241.594 150.422 241.594ZM145.766 248.219H154.641C154.578 245.344 153.172 243.906 150.422 243.906C147.505 243.906 145.953 245.344 145.766 248.219ZM160.531 253.047C160.531 249.682 162.75 248 167.188 248C168.615 248 170.042 248.104 171.469 248.312V246.766C171.469 244.88 169.995 243.938 167.047 243.938C165.359 243.938 163.63 244.198 161.859 244.719V242.375C163.63 241.854 165.359 241.594 167.047 241.594C171.922 241.594 174.359 243.292 174.359 246.688V258H172.734L171.734 256.375C170.099 257.458 168.318 258 166.391 258C162.484 258 160.531 256.349 160.531 253.047ZM167.188 250.344C164.677 250.344 163.422 251.229 163.422 253C163.422 254.771 164.411 255.656 166.391 255.656C168.391 255.656 170.083 255.125 171.469 254.062V250.656C170.042 250.448 168.615 250.344 167.188 250.344ZM179.062 258V241.594H181.016L181.531 243.688C182.969 242.292 184.698 241.594 186.719 241.594V244C184.76 244 183.172 244.693 181.953 246.078V258H179.062ZM201.969 257.531C200.615 257.844 199.156 258 197.594 258C191.76 258 188.844 255.161 188.844 249.484C188.844 244.224 191.76 241.594 197.594 241.594C199.156 241.594 200.615 241.75 201.969 242.062V244.406C200.615 244.094 199.104 243.938 197.438 243.938C193.635 243.938 191.734 245.786 191.734 249.484C191.734 253.599 193.635 255.656 197.438 255.656C199.104 255.656 200.615 255.5 201.969 255.188V257.531ZM205.656 258V235.656H208.547V243.375C209.943 242.188 211.646 241.594 213.656 241.594C217.75 241.594 219.797 243.63 219.797 247.703V258H216.906V247.656C216.906 245.219 215.693 244 213.266 244C211.609 244 210.036 244.693 208.547 246.078V258H205.656Z" fill="#66C0F4"/>
<defs>
<clipPath id="clip0_1_51">
<rect width="88" height="88" fill="white" transform="translate(180.131 88) rotate(22.1161)"/>
</clipPath>
</defs>
</svg>
