<svg width="313" height="91" viewBox="0 0 313 91" fill="none" xmlns="http://www.w3.org/2000/svg">
<path d="M62.4941 11.375C68.0192 11.375 73.3176 13.5721 77.2244 17.483C81.1311 21.3939 83.3259 26.6983 83.3259 32.2292C83.3259 37.76 81.1311 43.0645 77.2244 46.9755C73.3176 50.8861 68.0192 53.0832 62.4941 53.0832L61.68 53.0606L45.4429 62.8126C45.3869 65.6527 44.4219 68.4002 42.69 70.6502C40.9578 72.9001 38.5502 74.5342 35.821 75.3118C33.0919 76.0899 30.1854 75.9699 27.5293 74.9705C24.8732 73.9707 22.6078 72.1439 21.0663 69.7593L9.66579 64.06C9.03691 63.7449 8.50818 63.2601 8.1389 62.6609C7.76966 62.0612 7.5744 61.371 7.57507 60.6668V49.2918C7.5748 48.6453 7.73957 48.0095 8.05375 47.4448C8.36794 46.8801 8.82113 46.4052 9.37027 46.0651C9.9194 45.7253 10.5462 45.5314 11.1913 45.502C11.8363 45.473 12.4781 45.6093 13.0556 45.8982L24.6076 51.6804C26.7612 50.178 29.3119 49.349 31.9365 49.2993L41.6818 33.0406L41.6627 32.2292C41.6627 26.6983 43.8575 21.3939 47.7642 17.483C51.671 13.5721 56.9694 11.375 62.4941 11.375ZM15.1502 55.4265V58.3235L25.4522 63.4802L25.9635 63.791C26.3322 64.0564 26.644 64.3775 26.8991 64.7542L27.1301 65.1445C27.6686 66.2035 28.5248 67.067 29.5786 67.6138C30.6324 68.161 31.8309 68.3637 33.0056 68.1936C34.1804 68.0235 35.2725 67.4898 36.1286 66.6664C36.9846 65.8435 37.5617 64.7725 37.7787 63.6042C37.9958 62.4363 37.8418 61.2291 37.3386 60.153C36.8353 59.0769 36.008 58.1856 34.9728 57.6042C33.9376 57.0228 32.7465 56.7808 31.5667 56.9116C30.387 57.0427 29.2779 57.5406 28.3952 58.335L27.9785 58.7518C27.4232 59.3658 26.6823 59.781 25.869 59.9336C25.0558 60.0862 24.215 59.9682 23.4751 59.5974L15.1502 55.4265ZM44.5982 42.9067L39.4699 51.4682C40.9848 52.4653 42.2764 53.7619 43.2728 55.2748L51.825 50.141C48.8534 48.3675 46.3697 45.8815 44.5982 42.9067ZM62.4941 18.9583C58.9783 18.9583 55.6067 20.3565 53.1206 22.8453C50.6345 25.334 49.2381 28.7095 49.2381 32.2292C49.2381 35.7488 50.6345 39.1243 53.1206 41.6132C55.6067 44.102 58.9783 45.5 62.4941 45.5C66.0103 45.5 69.3819 44.102 71.868 41.6132C74.3541 39.1243 75.7505 35.7488 75.7505 32.2292C75.7505 28.7095 74.3541 25.334 71.868 22.8453C69.3819 20.3565 66.0103 18.9583 62.4941 18.9583ZM62.4941 24.6458C64.5034 24.6458 66.4302 25.4448 67.8505 26.8669C69.2712 28.2891 70.0694 30.218 70.0694 32.2292C70.0694 34.2404 69.2712 36.1692 67.8505 37.5914C66.4302 39.0135 64.5034 39.8127 62.4941 39.8127C60.4852 39.8127 58.5584 39.0135 57.1381 37.5914C55.7174 36.1692 54.9192 34.2404 54.9192 32.2292C54.9192 30.218 55.7174 28.2891 57.1381 26.8669C58.5584 25.4448 60.4852 24.6458 62.4941 24.6458Z" fill="white"/>
<mask id="mask0_1_97" style="mask-type:luminance" maskUnits="userSpaceOnUse" x="58" y="34" width="46" height="47">
<path d="M103.864 48.1349L71.5024 34.9695L58.3513 67.366L90.7124 80.5314L103.864 48.1349Z" fill="white"/>
</mask>
<g mask="url(#mask0_1_97)">
<mask id="mask1_1_97" style="mask-type:luminance" maskUnits="userSpaceOnUse" x="58" y="34" width="46" height="47">
<path d="M71.5021 34.9695L103.863 48.1351L90.712 80.5315L58.3509 67.3659L71.5021 34.9695Z" fill="white"/>
</mask>
<g mask="url(#mask1_1_97)">
<path d="M74.2242 41.4114C82.4664 37.9475 88.6492 41.1451 91.7796 48.5535C92.0026 49.084 92.2567 49.5998 92.4814 50.1307C95.1214 56.4065 94.0592 62.1506 88.6965 65.8781C88.9128 66.2389 89.1347 66.6236 89.3681 67.0392C91.2473 70.3661 94.4709 75.9795 89.6718 78.0065C84.9259 80.0121 83.0352 73.7863 81.9861 70.1519C81.8599 69.7152 81.7376 69.2777 81.6197 68.8393C75.2475 70.0422 70.4286 66.8004 67.7957 60.5544C67.5718 60.0243 67.3173 59.5085 67.0935 58.9776C63.9723 51.5732 65.982 44.8753 74.2242 41.4114Z" fill="#00034A" stroke="#00034A" stroke-width="0.5" stroke-miterlimit="10" stroke-linecap="round" stroke-linejoin="round"/>
<path d="M91.7789 48.5531C88.6493 41.1452 82.4665 37.9476 74.2243 41.4114C65.9825 44.8746 63.9724 51.5732 67.0936 58.9776C69.7722 65.3293 74.7094 68.5743 81.2431 67.197C81.4031 68.0982 81.6635 69.0213 81.985 70.1527C84.3445 78.3192 87.129 77.207 88.9701 76.4293C90.8111 75.6512 93.5413 74.4265 89.3682 67.0392C88.7994 66.0267 88.3008 65.197 87.778 64.4483C93.3293 60.726 94.4543 54.9128 91.7801 48.5527L91.7789 48.5531Z" fill="#66C0F4" stroke="#00034A" stroke-width="0.5" stroke-miterlimit="10" stroke-linecap="round" stroke-linejoin="round"/>
<path d="M76.2768 61.5597C78.3409 62.3994 80.6543 62.3839 82.7069 61.5164C84.76 60.6489 86.3847 59.0006 87.2238 56.9338C88.0625 54.8674 88.0471 52.5519 87.1805 50.4966C86.314 48.4414 84.6675 46.8149 82.6029 45.9753C80.5388 45.1352 78.2258 45.1507 76.1728 46.0182C74.1198 46.8857 72.4951 48.534 71.6563 50.6008C70.8172 52.6675 70.8327 54.9831 71.6992 57.0383C72.5658 59.0932 74.2123 60.7196 76.2768 61.5597Z" fill="white" stroke="#00034A" stroke-width="0.5" stroke-miterlimit="10" stroke-linecap="round" stroke-linejoin="round"/>
<path d="M79.5591 48.2626C80.2423 48.0286 80.9846 48.0365 81.6622 48.2857C82.3394 48.5348 82.9106 49.0097 83.2797 49.6308" fill="white"/>
<path d="M79.5591 48.2626C80.2423 48.0286 80.9846 48.0365 81.6622 48.2857C82.3394 48.5348 82.9106 49.0097 83.2797 49.6308" stroke="#00034A" stroke-width="0.5" stroke-miterlimit="10" stroke-linecap="round" stroke-linejoin="round"/>
</g>
</g>
<path d="M111.344 57.2188V54.5625C113.688 55.3958 116.219 55.8125 118.938 55.8125C122.781 55.8125 124.703 54.4062 124.703 51.5938C124.703 49.1979 123.286 48 120.453 48H117.578C112.901 48 110.562 45.9688 110.562 41.9062C110.562 37.6354 113.557 35.5 119.547 35.5C122.151 35.5 124.573 35.8125 126.812 36.4375V39.0938C124.573 38.2604 122.151 37.8438 119.547 37.8438C115.484 37.8438 113.453 39.1979 113.453 41.9062C113.453 44.3021 114.828 45.5 117.578 45.5H120.453C125.214 45.5 127.594 47.5312 127.594 51.5938C127.594 55.9688 124.708 58.1562 118.938 58.1562C116.219 58.1562 113.688 57.8438 111.344 57.2188ZM131.5 38.9375H133.312L133.938 41.5938H138.375V43.9375H134.391V53.3594C134.391 54.8906 135.052 55.6562 136.375 55.6562H138.375V58H135.625C132.875 58 131.5 56.526 131.5 53.5781V38.9375ZM148.828 41.5938C153.495 41.5938 155.828 43.901 155.828 48.5156C155.828 49.1719 155.781 49.875 155.688 50.625H144.172C144.172 53.9792 146.13 55.6562 150.047 55.6562C151.911 55.6562 153.568 55.4479 155.016 55.0312V57.375C153.568 57.7917 151.807 58 149.734 58C144.099 58 141.281 55.2031 141.281 49.6094C141.281 44.2656 143.797 41.5938 148.828 41.5938ZM144.172 48.2188H153.047C152.984 45.3438 151.578 43.9062 148.828 43.9062C145.911 43.9062 144.359 45.3438 144.172 48.2188ZM158.938 53.0469C158.938 49.6823 161.156 48 165.594 48C167.021 48 168.448 48.1042 169.875 48.3125V46.7656C169.875 44.8802 168.401 43.9375 165.453 43.9375C163.766 43.9375 162.036 44.1979 160.266 44.7188V42.375C162.036 41.8542 163.766 41.5938 165.453 41.5938C170.328 41.5938 172.766 43.2917 172.766 46.6875V58H171.141L170.141 56.375C168.505 57.4583 166.724 58 164.797 58C160.891 58 158.938 56.349 158.938 53.0469ZM165.594 50.3438C163.083 50.3438 161.828 51.2292 161.828 53C161.828 54.7708 162.818 55.6562 164.797 55.6562C166.797 55.6562 168.49 55.125 169.875 54.0625V50.6562C168.448 50.4479 167.021 50.3438 165.594 50.3438ZM177.469 58V41.5938H179.422L179.906 43.6562C181.479 42.2812 183.193 41.5938 185.047 41.5938C187.422 41.5938 189.042 42.3438 189.906 43.8438C191.688 42.3438 193.495 41.5938 195.328 41.5938C199.099 41.5938 200.984 43.6719 200.984 47.8281V58H198.094V47.6719C198.094 45.224 197.062 44 195 44C193.458 44 192.016 44.7083 190.672 46.125V58H187.781V47.7188C187.781 45.2396 186.76 44 184.719 44C183.094 44 181.641 44.7083 180.359 46.125V58H177.469Z" fill="white"/>
<path d="M213.5 57.2188V54.5625C215.844 55.3958 218.375 55.8125 221.094 55.8125C224.938 55.8125 226.859 54.4062 226.859 51.5938C226.859 49.1979 225.443 48 222.609 48H219.734C215.057 48 212.719 45.9688 212.719 41.9062C212.719 37.6354 215.714 35.5 221.703 35.5C224.307 35.5 226.729 35.8125 228.969 36.4375V39.0938C226.729 38.2604 224.307 37.8438 221.703 37.8438C217.641 37.8438 215.609 39.1979 215.609 41.9062C215.609 44.3021 216.984 45.5 219.734 45.5H222.609C227.37 45.5 229.75 47.5312 229.75 51.5938C229.75 55.9688 226.865 58.1562 221.094 58.1562C218.375 58.1562 215.844 57.8438 213.5 57.2188ZM240.422 41.5938C245.089 41.5938 247.422 43.901 247.422 48.5156C247.422 49.1719 247.375 49.875 247.281 50.625H235.766C235.766 53.9792 237.724 55.6562 241.641 55.6562C243.505 55.6562 245.161 55.4479 246.609 55.0312V57.375C245.161 57.7917 243.401 58 241.328 58C235.693 58 232.875 55.2031 232.875 49.6094C232.875 44.2656 235.391 41.5938 240.422 41.5938ZM235.766 48.2188H244.641C244.578 45.3438 243.172 43.9062 240.422 43.9062C237.505 43.9062 235.953 45.3438 235.766 48.2188ZM250.531 53.0469C250.531 49.6823 252.75 48 257.188 48C258.615 48 260.042 48.1042 261.469 48.3125V46.7656C261.469 44.8802 259.995 43.9375 257.047 43.9375C255.359 43.9375 253.63 44.1979 251.859 44.7188V42.375C253.63 41.8542 255.359 41.5938 257.047 41.5938C261.922 41.5938 264.359 43.2917 264.359 46.6875V58H262.734L261.734 56.375C260.099 57.4583 258.318 58 256.391 58C252.484 58 250.531 56.349 250.531 53.0469ZM257.188 50.3438C254.677 50.3438 253.422 51.2292 253.422 53C253.422 54.7708 254.411 55.6562 256.391 55.6562C258.391 55.6562 260.083 55.125 261.469 54.0625V50.6562C260.042 50.4479 258.615 50.3438 257.188 50.3438ZM269.062 58V41.5938H271.016L271.531 43.6875C272.969 42.2917 274.698 41.5938 276.719 41.5938V44C274.76 44 273.172 44.6927 271.953 46.0781V58H269.062ZM291.969 57.5312C290.615 57.8438 289.156 58 287.594 58C281.76 58 278.844 55.1615 278.844 49.4844C278.844 44.224 281.76 41.5938 287.594 41.5938C289.156 41.5938 290.615 41.75 291.969 42.0625V44.4062C290.615 44.0938 289.104 43.9375 287.438 43.9375C283.635 43.9375 281.734 45.7865 281.734 49.4844C281.734 53.599 283.635 55.6562 287.438 55.6562C289.104 55.6562 290.615 55.5 291.969 55.1875V57.5312ZM295.656 58V35.6562H298.547V43.375C299.943 42.1875 301.646 41.5938 303.656 41.5938C307.75 41.5938 309.797 43.6302 309.797 47.7031V58H306.906V47.6562C306.906 45.2188 305.693 44 303.266 44C301.609 44 300.036 44.6927 298.547 46.0781V58H295.656Z" fill="#66C0F4"/>
</svg>
