<svg width="59" height="59" viewBox="0 0 59 59" fill="none" xmlns="http://www.w3.org/2000/svg">
<path d="M26 41.8095C22.0807 41.8095 18.3219 40.2643 15.5505 37.5138C12.7792 34.7632 11.2222 31.0327 11.2222 27.1429C11.2222 23.253 12.7792 19.5225 15.5505 16.772C18.3219 14.0214 22.0807 12.4762 26 12.4762C29.9193 12.4762 33.6781 14.0214 36.4495 16.772C39.2208 19.5225 40.7778 23.253 40.7778 27.1429C40.7778 31.0327 39.2208 34.7632 36.4495 37.5138C33.6781 40.2643 29.9193 41.8095 26 41.8095ZM40.8411 15.3886L43.8389 12.4133C42.8889 11.3448 41.9389 10.381 40.8622 9.45905L37.8644 12.4762C34.5922 9.83619 30.4756 8.28571 26 8.28571C20.9609 8.28571 16.1282 10.2724 12.565 13.8088C9.00178 17.3452 7 22.1416 7 27.1429C7 32.1441 9.00178 36.9405 12.565 40.4769C16.1282 44.0133 20.9609 46 26 46C36.5556 46 45 37.5562 45 27.1429C45 22.701 43.4378 18.6152 40.8411 15.3886ZM23.8889 29.2381H28.1111V16.6667H23.8889M32.3333 2H19.6667V6.19048H32.3333V2Z" fill="white"/>
</svg>
